<svg width="23" height="23" viewBox="0 0 23 23" fill="none" xmlns="http://www.w3.org/2000/svg">
	<path d="M10.2067 20.4248C7.47176 20.4248 4.90599 19.3495 2.9887 17.4251C1.07142 15.5008 0 12.8973 0 10.1523C0 7.40727 1.07142 4.83206 2.9887 2.90773C6.85146 -0.969242 13.562 -0.969242 17.4247 2.90773C19.342 4.83206 20.4134 7.40727 20.4134 10.1523C20.4134 12.8973 19.342 15.4725 17.4247 17.3968C15.5074 19.3495 12.9417 20.4248 10.2067 20.4248ZM10.2067 2.87943C8.26123 2.87943 6.45673 3.6435 5.07516 5.00185C3.69359 6.38851 2.96051 8.19964 2.96051 10.1523C2.96051 12.1049 3.72178 13.916 5.07516 15.3027C7.8101 18.0477 12.6033 18.0477 15.3383 15.3027C16.7198 13.916 17.4529 12.1049 17.4529 10.1523C17.4529 8.19964 16.6916 6.38851 15.3383 5.00185C13.9849 3.6435 12.1522 2.87943 10.2067 2.87943Z" fill="#244D9D" />
	<path d="M21.5126 22.9976C21.1461 22.9976 20.7514 22.8561 20.4694 22.5731L15.3379 17.4227C14.7458 16.8284 14.7458 15.8945 15.3379 15.3285C15.93 14.7342 16.8604 14.7342 17.4243 15.3285L22.5559 20.4789C23.148 21.0732 23.148 22.0071 22.5559 22.5731C22.2739 22.8278 21.8792 22.9976 21.5126 22.9976Z" fill="#244D9D" />
</svg>